<?xml version="1.0" standalone="no"?>
<!DOCTYPE svg PUBLIC "-//W3C//DTD SVG 20010904//EN"
 "http://www.w3.org/TR/2001/REC-SVG-20010904/DTD/svg10.dtd">
<svg version="1.0" xmlns="http://www.w3.org/2000/svg"
 width="250.000000pt" height="250.000000pt" viewBox="0 0 250.000000 250.000000"
 preserveAspectRatio="xMidYMid meet">
<metadata>
Created by potrace 1.11, written by Peter Selinger 2001-2013
</metadata>
<g transform="translate(0.000000,250.000000) scale(0.100000,-0.100000)"
fill="#000000" stroke="none">
<path d="M780 2032 c-411 -148 -465 -169 -463 -187 30 -278 135 -1186 138
-1201 3 -15 105 -76 392 -235 213 -118 392 -215 398 -217 9 -2 777 417 794
434 9 9 148 1235 140 1240 -7 4 -933 335 -934 333 0 0 -209 -76 -465 -167z
m761 -717 l287 -645 -107 0 -107 0 -58 145 -58 145 -248 0 -248 0 -58 -145
-58 -145 -107 0 -107 0 287 645 c157 354 288 644 291 644 3 0 134 -290 291
-644z"/>
<path d="M1166 1353 c-43 -104 -81 -194 -83 -200 -4 -10 33 -13 167 -13 134 0
171 3 167 13 -48 121 -162 387 -167 387 -3 0 -41 -84 -84 -187z"/>
</g>
</svg>
